<?xml version="1.0" encoding="utf-8"?>
<!-- Generator: Adobe Illustrator 16.0.3, SVG Export Plug-In . SVG Version: 6.00 Build 0)  -->
<!DOCTYPE svg PUBLIC "-//W3C//DTD SVG 1.1//EN" "http://www.w3.org/Graphics/SVG/1.1/DTD/svg11.dtd">
<svg version="1.1" xmlns="http://www.w3.org/2000/svg" xmlns:xlink="http://www.w3.org/1999/xlink" x="0px" y="0px" width="256px"
	 height="256px" viewBox="0 0 256 256" enable-background="new 0 0 256 256" xml:space="preserve">
<g id="Background">
	<circle fill="#533E79" stroke="#AF8DC1" stroke-width="2" stroke-miterlimit="10" cx="128" cy="128" r="108"/>
</g>
<g id="Doorway">
	<path fill="#AF8DC1" d="M68,180l12-4V68c0,0,24-8,48-8s48,8,48,8l0,108l12,4V60c0,0-28-12-60-12c-28,0-60,12-60,12V180z"/>
</g>
<g id="Person">
	<path fill="#AF8DC1" d="M148,140c-6.3-6.3-12-8-12-8v-5.4c9.3-3.3,16-12.2,16-22.6c0-13.3-10.7-24-24-24s-24,10.7-24,24c0,10.4,6.7,19.3,16,22.6v5.4c0,0-4,0-12,8s-8,28-8,28v28h56v-28C156,168,156,148,148,140z"/>
</g>
</svg>
