<?xml version="1.0" encoding="utf-8"?>
<!-- Generator: Adobe Illustrator 16.0.3, SVG Export Plug-In . SVG Version: 6.00 Build 0)  -->
<!DOCTYPE svg PUBLIC "-//W3C//DTD SVG 1.1//EN" "http://www.w3.org/Graphics/SVG/1.1/DTD/svg11.dtd">
<svg version="1.1" xmlns="http://www.w3.org/2000/svg" xmlns:xlink="http://www.w3.org/1999/xlink" x="0px" y="0px" width="256px"
	 height="256px" viewBox="0 0 256 256" enable-background="new 0 0 256 256" xml:space="preserve">
<g id="Background">
	<circle fill="#742226" stroke="#EF4243" stroke-width="2" stroke-miterlimit="10" cx="128" cy="128" r="108"/>
</g>
<g id="Biohazard">
	<g>
		<path fill="#EF4142" d="M184.6,95.3c0.1-0.6,0.2-1.2,0.3-1.7c4.2-31.4-17.8-60.2-49.2-64.4v2.1c18.2,3.5,31.6,19,32.4,37.5	c1,21.4-15,39.7-36.1,41.8v6.7c5.3,2,8.2,7.4,7.3,12.8l5.7,3.3c10.3-14.4,28.9-20.4,45.7-14.6c21,7.2,32.1,30.1,24.9,51l1.8,1.1	c0.2-0.5,0.4-1.1,0.6-1.6C229.2,139.5,214.2,106.4,184.6,95.3z"/>
		<path fill="#EF4142" d="M120.8,136.9l-5.8,3.4c7.2,16,3.1,35-10.3,46.7c-16.7,14.5-42.1,12.8-56.6-4l-1.8,1.1	c0.4,0.5,0.7,0.9,1.1,1.4c20.1,24.5,56.2,28,80.7,7.9c0.5,0.4,0.9,0.7,1.4,1.1c25.1,19.3,61.1,14.7,80.4-10.4l-1.8-1.1	c-12.1,14-32.2,17.8-48.7,9.4c-19-9.8-26.9-32.7-18.2-52l-5.8-3.4C130.9,140.3,124.9,140.2,120.8,136.9z"/>
		<path fill="#EF4142" d="M116.7,129.9c-0.9-5.5,2.2-10.8,7.3-12.6v-6.7c-17.5-1.7-32-14.8-35.4-32.3c-4.2-21.8,10-42.8,31.7-47	v-2.1c-0.6,0.1-1.2,0.2-1.7,0.3c-31.2,5.2-52.3,34.7-47.2,65.9c-0.6,0.2-1.1,0.4-1.6,0.6c-29.3,12-43.3,45.5-31.2,74.8l1.8-1.1	c-6-17.5,0.7-36.8,16.2-46.8c18.1-11.6,42-6.9,54.3,10.4l5.7-3.3C116.7,129.9,116.7,129.9,116.7,129.9z"/>
	</g>
</g>
</svg>