<?xml version="1.0" encoding="utf-8"?>
<!-- Generator: Adobe Illustrator 16.0.3, SVG Export Plug-In . SVG Version: 6.00 Build 0)  -->
<!DOCTYPE svg PUBLIC "-//W3C//DTD SVG 1.1//EN" "http://www.w3.org/Graphics/SVG/1.1/DTD/svg11.dtd">
<svg version="1.1" xmlns="http://www.w3.org/2000/svg" xmlns:xlink="http://www.w3.org/1999/xlink" x="0px" y="0px" width="256px"
	 height="256px" viewBox="0 0 256 256" enable-background="new 0 0 256 256" xml:space="preserve">
<g id="Background">
	<circle fill="#535980" stroke="#CCCDE7" stroke-width="2" stroke-miterlimit="10" cx="128" cy="128" r="108"/>
</g>
<g id="Chest">
	<path fill="#CCCDE7" d="M60,116v68h136v-68H60z M136,136c0,4.4-3.6,8-8,8c-4.4,0-8-3.6-8-8s3.6-8,8-8C132.4,128,136,131.6,136,136z M176,164H80v-36h24v24h48v-24h24V164z"/>
</g>
<g id="Lid">
	<path fill="#CCCDE7" d="M84,108H60V84c0,0,0-4,8-12s12-8,12-8h20L84,108z"/>
	<polygon fill="#CCCDE7" points="116,64 140,64 156,108 100,108"/>
	<path fill="#CCCDE7" d="M172,108h24V84c0,0,0-4-8-12s-12-8-12-8h-20L172,108z"/>
</g>
</svg>
