<?xml version="1.0" encoding="utf-8"?>
<!-- Generator: Adobe Illustrator 16.0.3, SVG Export Plug-In . SVG Version: 6.00 Build 0)  -->
<!DOCTYPE svg PUBLIC "-//W3C//DTD SVG 1.1//EN" "http://www.w3.org/Graphics/SVG/1.1/DTD/svg11.dtd">
<svg version="1.1" xmlns="http://www.w3.org/2000/svg" xmlns:xlink="http://www.w3.org/1999/xlink" x="0px" y="0px" width="256px"
	 height="256px" viewBox="0 0 256 256" enable-background="new 0 0 256 256" xml:space="preserve">
<g id="Background">
	<circle fill="#2D4E24" stroke="#5EAF48" stroke-width="2" stroke-miterlimit="10" cx="128" cy="128" r="108"/>
</g>
<g id="Parachute">
	<g>
		<path fill="#5EAF48" d="M191.2,56.1c-12.7-12.7-31.8-24.9-63.9-25.2c-31.6-0.3-50.7,12.5-63.4,25.2C35,84.9,32,126.1,32,126.1L127.5,228L223,126.1C223,126.1,226.3,91.3,191.2,56.1z M178.4,126.1l-49.1,92l17.3-92H178.4z M108.4,126.1l17.3,92l-49.1-92H108.4z M38.4,126.1h31.8l48.3,85.8L38.4,126.1z M114.8,126.1h25.5l-12.7,95.5L114.8,126.1z M136.5,212l48.3-85.8h31.8L136.5,212z"/>
	</g>
</g>
</svg>
