<?xml version="1.0" encoding="utf-8"?>
<!-- Generator: Adobe Illustrator 16.0.3, SVG Export Plug-In . SVG Version: 6.00 Build 0)  -->
<!DOCTYPE svg PUBLIC "-//W3C//DTD SVG 1.1//EN" "http://www.w3.org/Graphics/SVG/1.1/DTD/svg11.dtd">
<svg version="1.1" xmlns="http://www.w3.org/2000/svg" xmlns:xlink="http://www.w3.org/1999/xlink" x="0px" y="0px" width="256px"
	 height="256px" viewBox="0 0 256 256" enable-background="new 0 0 256 256" xml:space="preserve">
<g id="Background">
	<circle fill="#2D4E24" stroke="#5EAF48" stroke-width="2" stroke-miterlimit="10" cx="128" cy="128" r="108"/>
</g>
<g id="Parachute">
	<path fill="#5EAF48" d="M56,96c0,0,20-56,72-56s72,56,72,56H56z"/>
	<path fill="#5EAF48" d="M172,204c0,6.6-5.4,12-12,12H96c-6.6,0-12-5.4-12-12v-36c0-6.6,5.4-12,12-12h64c6.6,0,12,5.4,12,12V204z"/>
	<polygon fill="#5EAF48" points="200,96 196,112 144,156 140,156 188,108 184,96"/>
	<polygon fill="#5EAF48" points="160,104 136,156 132,156 152,108 144,100 112,100 104,108 124,156 120,156 96,104 84,96 172,96"/>
	<polygon fill="#5EAF48" points="56,96 60,112 112,156 116,156 68,108 72,96"/>
</g>
</svg>
