<?xml version="1.0" encoding="utf-8"?>
<!-- Generator: Adobe Illustrator 16.0.3, SVG Export Plug-In . SVG Version: 6.00 Build 0)  -->
<!DOCTYPE svg PUBLIC "-//W3C//DTD SVG 1.1//EN" "http://www.w3.org/Graphics/SVG/1.1/DTD/svg11.dtd">
<svg version="1.1" xmlns="http://www.w3.org/2000/svg" xmlns:xlink="http://www.w3.org/1999/xlink" x="0px" y="0px" width="256px"
	 height="256px" viewBox="0 0 256 256" enable-background="new 0 0 256 256" xml:space="preserve">
<g id="Background">
	<circle fill="#742226" stroke="#EF4243" stroke-width="2" stroke-miterlimit="10" cx="128" cy="128" r="108"/>
</g>
<g id="Biohazard">
	<path fill="#EF4243" d="M192.6,96c-1.6-0.9-3.3-1.7-5-2.5c0.2-1.8,0.3-3.7,0.3-5.5c0-30.4-22.6-55.4-52-59.3v0.2c19.3,3.7,34,20.7,34,41.1c0,22.5-17.8,40.7-40,41.8h-4c-22.2-1.1-39.9-19.3-39.9-41.8c0-20.4,14.6-37.4,34-41.1v-0.2C90.7,32.6,68,57.6,68,88c0,1.9,0.1,3.7,0.3,5.5c-1.7,0.8-3.3,1.6-5,2.5c-26.3,15.2-36.6,47.3-25.4,74.6l0.2-0.1c-6.4-18.6,1-39.8,18.6-50c19.5-11.2,44.2-5,56.2,13.7l2,3.4c10.2,19.8,3.3,44.3-16.2,55.5c-17.7,10.2-39.7,6-52.6-8.9l-0.2,0.1c18,23.4,51.1,30.6,77.4,15.4c1.6-0.9,3.1-2,4.7-3.1c1.5,1.1,3,2.1,4.7,3.1c26.3,15.2,59.3,8.1,77.3-15.3l-0.2-0.1c-12.9,14.9-34.9,19.1-52.6,8.9c-19.5-11.2-26.4-35.7-16.2-55.5l2-3.5c12-18.7,36.7-25,56.2-13.7c17.7,10.2,25.1,31.4,18.6,50l0.2,0.1C229.3,143.3,218.9,111.2,192.6,96z M137.1,135.5c-2.2,2.6-5.4,4.4-9.1,4.4c-3.7,0-6.9-1.8-9.1-4.4l-2-3.4c-0.5-1.3-0.8-2.7-0.8-4.1c0-5.9,4.4-10.6,10-11.6l4,0c5.6,1,10,5.7,10,11.6c0,1.5-0.4,2.8-0.8,4.1L137.1,135.5z"/>
</g>
</svg>
