<?xml version="1.0" encoding="utf-8"?>
<!-- Generator: Adobe Illustrator 16.0.3, SVG Export Plug-In . SVG Version: 6.00 Build 0)  -->
<!DOCTYPE svg PUBLIC "-//W3C//DTD SVG 1.1//EN" "http://www.w3.org/Graphics/SVG/1.1/DTD/svg11.dtd">
<svg version="1.1" xmlns="http://www.w3.org/2000/svg" xmlns:xlink="http://www.w3.org/1999/xlink" x="0px" y="0px" width="256px"
	 height="256px" viewBox="0 0 256 256" enable-background="new 0 0 256 256" xml:space="preserve">
<g id="Background">
	<circle fill="#FEDD00" stroke="#766026" stroke-width="2" stroke-miterlimit="10" cx="128" cy="128" r="108"/>
</g>
<g id="Skull">
	<path id="path8" fill="none" stroke="#766026" stroke-width="8" stroke-miterlimit="5" d="M75.6,148c-7.7-7.5-13.1-20.5-13.9-34.6c-0.8-15.5,7.4-8.9,19.6-17.7C95,86.1,118,83.4,132.2,84.1c9.7,0,31.2,5,38.8,10.7c13.3,9.7,20.5,1.4,21,17.1c0.7,15.7-5.9,27.7-14,35.2"/>
	<path id="path16_3_" fill="none" stroke="#766026" stroke-width="8" d="M77.5,128.4C80,136,76,148,74.6,153.8C76,164,76,168,84,172s16,4,16,4c0,8,0,12,4,20s16,8,24,8"/>
	<path id="path24" fill="#766026" d="M112,136c4,4,8,8,8,12c1.8,7.1-7.7,10.6-13.8,8.6c-5.4-2.5-10.2-5.9-14.8-9.9c-3.5-3.1-4-6.8-2.9-10.3c0.8-2.8,3.4-9.7,7.4-12.5c4,0,4,0,8,0S108,132,112,136L112,136z"/>
	<path fill="#766026" d="M139.3,166.7c-0.4-2-1.9-5-2.6-6.2c-2.2-3.3-3-4.3-7-7.3v0.2c-0.2-0.2-0.8-0.8-1.2-1.2c-0.4-0.3-0.4-0.3-0.5-0.2c-0.2,0.1-0.9,0.8-1.1,1.1l0,0v0c-3.9,3-4.8,4-6.9,7.3c-0.8,1.3-2.2,4.2-2.6,6.2c-0.4,2-0.7,4.9-0.7,6.4c0,5.2,1.7,8.4,3.5,8.3c1.6-0.2,3.6-1.8,6.6-5.5c0,0.1,0,0.2,0,0.2v0c0,0,1-0.8,1.9-0.8l1.3,0.8l0-0.2c3.1,3.7,5.1,5.4,6.7,5.6c1.8,0.1,3.5-3.1,3.5-8.3C140,171.6,139.7,168.7,139.3,166.7z"/>
	<path id="path16_2_" fill="none" stroke="#766026" stroke-width="8" d="M128,204c8,0,20,0,24-8s4-12,4-20c0,0,8,0,16-4s8-8,9.4-18.2c-1.4-5.8-5.4-17.8-2.8-25.4"/>
	<path id="path24_1_" fill="#766026" d="M144,136c4-4,4-12,8-12s4,0,8,0c4,2.8,6.7,9.6,7.4,12.5c1.2,3.5,0.6,7.2-2.9,10.3c-4.6,4-9.4,7.5-14.8,9.9c-6.1,2-15.6-1.5-13.8-8.6C136,144,140,140,144,136L144,136z"/>
	<polygon fill="#766026" points="60,104 60,84 68,88 80,88 88,68 96,76 116,76 128,60 140,76 160,76 168,68 172,84 188,88 200,80 192,104 140,84 116,84 	"/>
	<circle fill="#766026" cx="60" cy="84" r="4"/>
	<circle fill="#766026" cx="86" cy="62" r="6"/>
	<circle fill="#766026" cx="170" cy="62" r="6"/>
	<circle fill="#766026" cx="200" cy="80" r="4"/>
	<circle fill="#766026" cx="128" cy="52" r="8"/>
</g>
</svg>
