<?xml version="1.0" encoding="utf-8"?>
<!-- Generator: Adobe Illustrator 16.0.3, SVG Export Plug-In . SVG Version: 6.00 Build 0)  -->
<!DOCTYPE svg PUBLIC "-//W3C//DTD SVG 1.1//EN" "http://www.w3.org/Graphics/SVG/1.1/DTD/svg11.dtd">
<svg version="1.1" xmlns="http://www.w3.org/2000/svg" xmlns:xlink="http://www.w3.org/1999/xlink" x="0px" y="0px" width="256px"
	 height="256px" viewBox="0 0 256 256" enable-background="new 0 0 256 256" xml:space="preserve">
<g id="Background">
	<circle fill="#2D4E24" stroke="#5EAF48" stroke-width="2" stroke-miterlimit="10" cx="128" cy="128" r="108"/>
</g>
<g id="Crate">
	<path fill="#5EAF48" d="M168,48c-8-8-20-15.7-40.2-15.8C108,32,96,40,88,48C69.9,66.1,68,92,68,92l56,60h-20c-6.6,0-12,5.4-12,12v48c0,6.6,5.4,12,12,12h48c6.6,0,12-5.4,12-12v-48c0-6.6-5.4-12-12-12h-20l56-60C188,92,190.1,70.1,168,48z M156,164v48h-48L156,164z M148,160l-48,48v-48H148z M128,152L72,92h20L128,152L96,92h20L128,152l-8-60h16L128,152l12-60h20L128,152l36-60h20L128,152z"/>
</g>
</svg>
